<?xml version="1.0" encoding="iso-8859-1"?>
<!-- Generator: Adobe Illustrator 21.0.0, SVG Export Plug-In . SVG Version: 6.00 Build 0)  -->
<svg xmlns="http://www.w3.org/2000/svg" xmlns:xlink="http://www.w3.org/1999/xlink" version="1.1" id="Capa_1" x="0px" y="0px" viewBox="0 0 512 512" style="enable-background:new 0 0 512 512;" xml:space="preserve" width="512" height="512">
<g>
	<path style="fill:#FFDA2D;" d="M398.5,56.314c-42.299-28.5-92.401-42.9-142.5-42.9s-100.201,14.399-142.5,42.9   c-3.6,2.401-5.7,6-6.599,9.901c-0.601,4.199,0.298,8.399,2.999,11.699l90.3,120.3c4.499,6,12.599,7.8,19.2,4.2   c11.1-6.301,24-9.6,36.599-9.6s25.499,3.3,36.599,9.6c2.401,1.199,4.801,1.8,7.202,1.8c4.799,0,9.3-2.1,11.999-6l90.3-120.3   c2.701-3.3,3.6-7.5,2.999-11.699C404.2,62.315,402.1,58.715,398.5,56.314z"/>
	<path style="fill:#FDBF00;" d="M355.99,497.648c-3.853-1.436-6.943-4.395-8.569-8.174l-59.15-138.472   c-2.944-6.899-0.337-14.912,6.094-18.765c22.573-13.506,36.27-37.192,36.621-63.384c0.103-7.515,5.742-13.784,13.213-14.692   l150.443-18.003c3.97-0.483,8.188,0.732,11.353,3.34c3.164,2.622,5.112,6.431,5.405,10.532c0.396,5.874,0.601,11.792,0.601,17.783   c0,98.247-55.873,186.094-144.188,229.248C363.987,498.921,359.694,499.033,355.99,497.648z"/>
	<path style="fill:#FFDA2D;" d="M144.188,497.062C55.873,453.908,0,366.061,0,267.814c0-5.991,0.205-11.909,0.601-17.783   c0.293-4.102,2.241-7.91,5.405-10.532c3.179-2.637,7.383-3.838,11.353-3.34l150.443,18.003c7.471,0.908,13.11,7.178,13.213,14.692   c0.352,26.191,14.048,49.878,36.621,63.384c6.431,3.853,9.038,11.865,6.094,18.765l-59.15,138.472   c-1.626,3.779-4.717,6.738-8.569,8.174C152.31,499.031,148.017,498.923,144.188,497.062z"/>
	<path style="fill:#FFDA2D;" d="M256,222.814c-24.901,0-45,20.099-45,45s20.099,45,45,45s45-20.099,45-45   S280.901,222.814,256,222.814z"/>
	<path style="fill:#FDBF00;" d="M301,267.814c0,24.901-20.099,45-45,45v-90C280.901,222.814,301,242.913,301,267.814z"/>
	<path style="fill:#FDBF00;" d="M405.099,66.215c0.601,4.199-0.298,8.399-2.999,11.699l-90.3,120.3c-2.699,3.9-7.2,6-11.999,6   c-2.401,0-4.801-0.601-7.202-1.8c-11.1-6.301-24-9.6-36.599-9.6V13.415c50.099,0,100.201,14.399,142.5,42.9   C402.1,58.715,404.2,62.315,405.099,66.215z"/>
</g>















</svg>
